Poster: 
http://imgr.us/images/v5rr9c9upiezwy8fenwu.jpg

Info:
Format : AVI
Format/Info : Audio Video Interleave
File size : 890 MiB
Overall bit rate : 1 103 Kbps

Video
ID : 0
Format : MPEG-4 Visual
Format profile : Advanced Simple@L5
Format settings, BVOP : 2
Format settings, QPel : No
Format settings, GMC : No warppoints
Format settings, Matrix : Default (H.263)
Muxing mode : Packed bitstream
Codec ID : DX50
Codec ID/Hint : DivX 5
Duration : 1h 52mn
Bit rate : 1 027 Kbps
Width : 720 pixels
Height : 314 pixels
Display aspect ratio : 2.25:1
Frame rate : 23.976 fps
Color space : YUV
Chroma subsampling : 4:2:0
Bit depth : 8 bits
Scan type : Progressive
Compression mode : Lossy
Bits/(Pixel*Frame) : 0.189
Stream size : 828 MiB (93%)
Writing library : XviD 1.2.1 (UTC 2008-12-04)

Audio
ID : 1
Format : MPEG Audio
Format version : Version 1
Format profile : Layer 3
Mode : Joint stereo
Mode extension : MS Stereo
Codec ID : 55
Codec ID/Hint : MP3
Duration : 1h 52mn
Bit rate mode : Constant
Bit rate : 64.0 Kbps
Channel(s) : 2 channels
Sampling rate : 48.0 KHz
Compression mode : Lossy
Stream size : 51.6 MiB (6%)
Alignment : Aligned on interleaves
Interleave, duration : 24 ms (0.58 video frame)
Writing library : LAME3.98.4

Screens: 
http://www.shotpix.com/images/49846458299848474542.jpg 
http://www.shotpix.com/images/15348763723893686003.jpg 
http://www.shotpix.com/images/14025740027667824135.jpg 
http://www.shotpix.com/images/56075438572839008338.jpg 
http://www.shotpix.com/images/27560275101225502441.jpg 
http://www.shotpix.com/images/68029367407116013367.jpg





